<svg width="271" height="271" viewBox="0 0 271 271" fill="none" xmlns="http://www.w3.org/2000/svg">
<g clip-path="url(#clip0_141_63)">
<path d="M149.433 197.458C148.35 196.215 146.743 195.15 144.765 194.28C155.05 187.294 153.585 178.321 143.799 173.689C146.027 171.986 147.781 170.124 148.924 168.197C153.037 161.261 149.265 154.64 139.735 151.41C141.31 149.867 142.445 148.222 142.954 146.568C145.822 136.947 131.928 130.228 114.124 131.485C109.939 131.78 119.511 129.577 115.509 130.609C112.857 131.291 113.257 132.632 115.803 132.08C128.82 129.23 130.609 133.706 135.709 139.827C138.351 143.008 138.742 147.019 135.752 150.35C134.305 150.039 132.768 149.793 131.118 149.627C123.654 148.885 115.221 149.56 107.653 151.867C103.941 152.997 100.139 154.713 100.174 157.002C100.231 159.096 103.633 160.458 107.103 160.918C117.409 162.276 129.184 158.971 136.423 154.074C141.146 155.574 144.511 158.05 145.436 161.292C146.459 164.863 144.639 169.004 140.379 172.368C140.3 172.341 140.219 172.302 140.115 172.279C133.884 170.388 124.888 169.438 116.795 170.891C113.017 171.572 109.331 173.055 108.472 175.22C107.616 177.397 109.842 179.275 112.864 180.26C118.771 182.16 127.373 181.103 134.062 178.773C136.204 178.025 138.151 177.141 139.91 176.17C145.408 178.69 148.066 182.659 146.193 187.292C145.363 189.312 143.473 191.271 140.897 192.987C132.303 190.678 119.908 191.117 110.96 195.104C107.038 196.851 107.553 199.171 110.634 200.389C113.555 201.542 118.124 201.65 122.086 201.375C128.75 200.921 135.451 199.188 140.797 196.569C141.943 197.051 142.976 197.614 143.798 198.271C150.175 203.377 141.818 212.081 129.773 214.738C127.859 215.158 128.624 216.626 130.463 216.37C145.618 214.277 155.004 203.892 149.388 197.49L149.433 197.458ZM122.95 157.233C118.183 158.505 108.703 159.716 106.188 157.064C104.027 154.781 117.679 152.845 120.472 152.614C124.774 152.264 128.881 152.465 132.503 153.107C130.042 154.754 126.85 156.19 122.948 157.221L122.95 157.233ZM114.272 176.383C111.923 172.815 126.547 173.247 129.492 173.542C132.031 173.794 134.375 174.254 136.466 174.865C134.279 175.988 131.742 176.946 128.815 177.63C123.809 178.809 116.135 179.194 114.272 176.383ZM116.777 198.432C115.345 198.221 113.04 197.858 115.062 196.975C116.239 196.472 117.93 196.058 119.285 195.745C122.408 195.033 125.733 194.673 128.855 194.636C131.602 194.603 134.239 194.841 136.637 195.331C130.866 197.948 123.447 199.391 116.775 198.419L116.777 198.432Z" fill="#3B3B3B"/>
<path d="M143.405 86.717C143.405 86.717 156.716 66.7415 169.049 73.3445C181.382 79.9475 166.529 86.4029 160.557 91.9441C154.586 97.4854 155.66 112.598 145.805 116.517C154.277 119.545 156.921 128.835 138.091 133.013C119.261 137.19 106.871 136.107 113.908 124.095C100.235 116.598 96.9641 102.299 92.8073 97.2467C88.6506 92.1942 67.8673 76.6753 72.7294 70.0817C79.3995 61.103 91.3802 80.5556 96.5021 84.6281C101.624 88.7006 105.644 86.1355 101.998 80.4561C93.6054 67.3315 79.0245 53.6079 86.869 48.0669C95.5995 41.899 99.872 56.1474 112.191 74.483C115.966 80.0615 118.386 73.4316 115.879 63.5148C112.997 51.9115 106.491 33.2379 115.33 31.3581C125.609 29.1902 127.051 42.7679 127.865 52.8359C128.68 62.9039 129.631 76.4671 132.051 72.8352C134.472 69.2033 133.512 41.7382 141.991 38.9935C148.395 36.926 152.703 43.4847 150.765 51.4047C148.684 60.2904 143.405 86.717 143.405 86.717Z" fill="#D7D7E1"/>
<path d="M135.628 134.742C122.481 137.371 114.471 136.837 111.784 133.139C110.278 131.042 110.451 128.159 112.345 124.52C102.958 118.977 98.6141 110.364 95.3938 104C94.1042 101.485 93.0308 99.3009 91.8997 97.953C90.9128 96.7638 88.8452 94.8537 86.4535 92.6337C78.4571 85.2385 67.5215 75.1332 71.8001 69.3683C73.1255 67.5668 74.7751 66.6374 76.6696 66.5583C81.9138 66.3716 87.7635 73.1468 92.4462 78.5813C94.3913 80.8157 96.0482 82.7329 97.2513 83.6915C99.7006 85.6377 101.422 85.6307 101.97 85.1839C102.51 84.7012 102.438 83.2166 101.069 81.0543C98.8934 77.6669 96.2927 74.2145 93.7929 70.8918C87.8855 63.0789 82.821 56.2967 83.6059 51.2304C83.8724 49.5657 84.7511 48.1533 86.2638 47.1013C88.2952 45.6458 90.2185 45.1488 92.1347 45.5526C96.637 46.5261 100.066 52.2487 105.21 60.9263C107.515 64.7751 110.116 69.1643 113.214 73.7915C114.115 75.1104 114.684 75.3339 114.792 75.3123C114.828 75.3051 114.929 75.2475 115.065 74.9953C115.966 73.5036 116.182 69.1507 114.805 63.7671C114.416 62.1959 113.97 60.5239 113.509 58.7798C110.908 49.144 107.975 38.2253 111.166 33.0153C112.066 31.5236 113.413 30.5797 115.178 30.2268C118.017 29.6218 120.466 30.0689 122.454 31.5826C127.295 35.1866 128.426 44.0295 129.126 52.7714L129.248 54.5082C129.688 59.7044 130.43 68.8499 131.41 71.6895C131.929 70.1617 132.332 66.5584 132.75 63.0271C133.916 52.7504 135.371 39.9802 141.738 37.9199C144.627 37.005 147.35 37.5098 149.382 39.4271C152.191 42.0507 153.207 46.7569 151.99 51.7222C150.391 58.1504 147.15 73.9761 145.508 82.0619C146.906 80.4333 148.692 78.5021 150.803 76.6935C157.581 70.8785 164.064 69.3948 169.553 72.307C172.997 74.1668 174.747 76.1777 174.906 78.4695C175.18 82.4621 170.469 85.8775 165.96 89.1776C164.231 90.4602 162.56 91.6563 161.328 92.802C159.081 94.8629 157.878 98.5886 156.61 102.552C154.939 107.683 153.088 113.412 148.485 116.431C151.727 118.219 153.622 120.951 153.442 123.797C153.262 126.457 151.094 131.35 138.358 134.159C137.421 134.346 136.528 134.562 135.628 134.742ZM76.2159 68.9725C75.2795 69.1598 74.4583 69.7362 73.6947 70.7883C70.655 74.8814 81.9581 85.3255 88.067 90.962C90.5452 93.2396 92.656 95.1785 93.751 96.5336C95.0333 98.076 96.1644 100.361 97.5188 103.013C100.689 109.312 105.076 117.954 114.499 123.115C114.794 123.281 114.989 123.504 115.054 123.828C115.154 124.146 115.104 124.455 114.931 124.715C113.037 127.979 112.612 130.35 113.649 131.792C114.939 133.558 119.787 135.886 137.868 131.896C145.943 130.131 150.906 127.04 151.129 123.66C151.259 121.311 148.982 118.918 145.431 117.642C144.984 117.469 144.674 117.043 144.653 116.561C144.631 116.078 144.955 115.638 145.402 115.436C150.675 113.333 152.576 107.481 154.406 101.831C155.803 97.5794 157.1 93.5726 159.786 91.0866C161.112 89.8472 162.812 88.6079 164.649 87.3037C168.474 84.5152 172.824 81.3592 172.651 78.6206C172.558 77.2152 171.146 75.7737 168.502 74.3536C157.257 68.3201 144.507 87.1713 144.392 87.3443C144.075 87.8199 143.47 87.9784 142.98 87.7765C142.454 87.5819 142.152 87.0053 142.267 86.4576C142.324 86.1837 147.596 59.9085 149.764 51.0805C150.751 47.0232 150.001 43.0882 147.84 41.0844C146.414 39.7582 144.584 39.412 142.509 40.0892C137.582 41.674 136.099 54.6749 135.12 63.2652C134.479 68.8648 134.083 72.1294 133.154 73.477C132.347 74.6876 131.482 74.6731 131.007 74.5433C128.875 73.9953 128.168 69.3396 126.958 54.6665L126.835 52.9296C126.33 46.847 125.501 36.707 121.1 33.4273C119.645 32.3317 117.901 32.0432 115.704 32.4825C114.588 32.7058 113.767 33.2822 113.205 34.2191C110.554 38.5716 113.472 49.4182 115.821 58.1675C116.289 59.9477 116.736 61.6197 117.132 63.2269C118.616 69.151 118.811 76.12 115.786 77.4745C114.792 77.9356 113.171 77.8849 111.348 75.1389C108.2 70.4469 105.563 66.0648 103.251 62.1801C98.568 54.3097 95.182 48.6159 91.7026 47.8875C90.4492 47.6135 89.1453 48.0241 87.6686 49.0689C86.6818 49.7534 86.1416 50.611 85.9759 51.6559C85.335 55.7565 90.3851 62.4667 95.7378 69.566C98.2808 72.9175 100.889 76.4059 103.122 79.8943C105.038 82.9214 105.226 85.5447 103.648 87.0219C101.934 88.5639 98.9011 88.0086 95.9187 85.6444C94.5428 84.5704 92.8282 82.5523 90.7894 80.2242C86.6471 75.4312 80.9847 68.8434 76.8642 69.0303C76.5761 68.9005 76.396 68.9365 76.2159 68.9725Z" fill="#120C28"/>
<path d="M113.98 125.018C113.404 125.133 112.813 124.801 112.626 124.239C112.431 123.641 112.748 122.978 113.382 122.776C117.848 121.321 122.35 120.421 125.959 119.736C127.508 119.427 128.949 119.139 130.202 118.851C130.843 118.685 131.449 119.089 131.614 119.73C131.78 120.371 131.377 120.977 130.736 121.142C129.482 121.431 128.005 121.726 126.421 122.043C122.884 122.713 118.453 123.598 114.131 125.025C114.052 125.003 114.016 125.01 113.98 125.018Z" fill="#120C28"/>
<path d="M138.919 119.356C138.414 119.457 137.874 119.19 137.629 118.714C137.363 118.131 137.6 117.446 138.177 117.143C139.985 116.257 141.555 116.056 142.967 115.811C143.911 115.66 144.71 115.537 145.402 115.249C145.992 115.018 146.684 115.292 146.915 115.883C147.145 116.474 146.871 117.166 146.281 117.397C145.308 117.779 144.329 117.937 143.277 118.11C142.002 118.29 140.655 118.484 139.156 119.234C139.128 119.277 139.027 119.334 138.919 119.356Z" fill="#120C28"/>
<path d="M76.9795 69.6069C74.9986 71.1273 74.3936 72.7847 75.4455 75.2352C76.4973 77.6856 90.8044 90.2273 94.3847 92.9591C97.9578 95.6549 104.132 110.235 109.614 111.987C115.096 113.739 116.155 104.795 121.831 99.838C127.507 94.8804 134.552 88.3376 137.57 85.2607C140.595 82.2198 148.82 48.2337 147.041 45.1418C145.304 42.0787 142.704 41.4369 140.514 44.9103C138.324 48.3837 137.303 67.813 136.41 71.0271C135.516 74.2413 133.298 78.32 130.013 77.0656C126.728 75.8112 125.199 47.373 123.276 41.4993C121.352 35.6255 117.448 33.3332 115.078 36.6552C112.708 39.9773 114.942 50.2112 116.685 55.1841C118.429 60.157 121.087 68.5821 119.085 74.8661C117.083 81.1502 113.301 80.22 111.853 78.5983C110.405 76.9766 97.2497 53.1492 94.2529 51.4625C91.2561 49.7757 87.575 48.6005 88.2019 53.6093C88.8289 58.6181 97.6539 69.4078 101.458 75.1305C105.262 80.8531 108.23 85.2064 104.7 87.5986C101.178 90.0268 97.3957 90.9704 93.736 85.9685C90.1339 81.0674 80.3652 68.3678 76.9795 69.6069Z" fill="white"/>
<path d="M126.276 109.892C125.627 110.021 125.022 109.618 124.893 108.969C123.992 104.465 127.313 99.5285 129.358 97.0208C132.362 93.3097 136.309 90.1969 139.407 89.0154C139.998 88.7849 140.696 89.0948 140.927 89.6858C141.157 90.2768 140.848 90.9758 140.257 91.2064C134.754 93.2812 126.088 102.771 127.234 108.501C127.327 109.157 126.924 109.762 126.276 109.892Z" fill="#120C28"/>
<path d="M108.598 98.0992C108.166 98.1856 107.719 98.0126 107.424 97.6594C107.02 97.1405 107.135 96.4054 107.661 96.0379C112.12 92.6729 117.602 91.2395 122.356 90.2888C123.005 90.1592 123.61 90.5628 123.74 91.2115C123.869 91.8601 123.466 92.4654 122.818 92.5951C118.315 93.4953 113.114 94.8351 109.052 97.9335C108.915 97.9983 108.778 98.0632 108.598 98.0992Z" fill="#120C28"/>
<path d="M165.693 74.5404C160.398 74.6622 154.643 78.2865 150.796 82.8407C146.957 87.4309 142.923 89.1744 137.319 95.4292C131.715 101.684 126.579 108.22 131.384 111.456C136.189 114.693 143.897 113.152 147.152 106.579C150.415 100.043 150.681 92.7572 156.862 88.6357C163.085 84.5431 168.488 83.088 168.762 79.5856C169.05 76.1552 168.502 74.3534 165.693 74.5404Z" fill="white"/>
<path d="M127.71 123.434C127.71 123.434 114.953 123.324 116.588 128.693C118.224 134.063 141.967 131.039 144.257 126.196C146.512 121.361 143.702 120.611 140.388 121.086C137.075 121.561 127.71 123.434 127.71 123.434Z" fill="white"/>
</g>
<defs>
<clipPath id="clip0_141_63">
<rect width="230" height="230" fill="white" transform="translate(0 45.0981) rotate(-11.3077)"/>
</clipPath>
</defs>
</svg>
